{
	"patcher" : 	{
		"fileversion" : 1,
		"appversion" : 		{
			"major" : 7,
			"minor" : 3,
			"revision" : 4,
			"architecture" : "x86",
			"modernui" : 1
		}
,
		"rect" : [ 34.0, 79.0, 1852.0, 1083.0 ],
		"bgcolor" : [ 1.0, 1.0, 1.0, 1.0 ],
		"bglocked" : 0,
		"openinpresentation" : 0,
		"default_fontsize" : 12.0,
		"default_fontface" : 0,
		"default_fontname" : "Arial",
		"gridonopen" : 1,
		"gridsize" : [ 15.0, 15.0 ],
		"gridsnaponopen" : 1,
		"objectsnaponopen" : 1,
		"statusbarvisible" : 2,
		"toolbarvisible" : 1,
		"lefttoolbarpinned" : 0,
		"toptoolbarpinned" : 0,
		"righttoolbarpinned" : 0,
		"bottomtoolbarpinned" : 0,
		"toolbars_unpinned_last_save" : 0,
		"tallnewobj" : 0,
		"boxanimatetime" : 200,
		"enablehscroll" : 1,
		"enablevscroll" : 1,
		"devicewidth" : 0.0,
		"description" : "",
		"digest" : "",
		"tags" : "",
		"style" : "",
		"subpatcher_template" : "",
		"boxes" : [ 			{
				"box" : 				{
					"id" : "obj-67",
					"maxclass" : "comment",
					"numinlets" : 1,
					"numoutlets" : 0,
					"patching_rect" : [ 157.0, 135.0, 225.0, 20.0 ],
					"style" : "",
					"text" : "jit.matrix(planes, data type, x dim, y dim)"
				}

			}
, 			{
				"box" : 				{
					"id" : "obj-65",
					"maxclass" : "newobj",
					"numinlets" : 1,
					"numoutlets" : 2,
					"outlettype" : [ "jit_matrix", "" ],
					"patching_rect" : [ 157.0, 157.0, 221.0, 22.0 ],
					"style" : "",
					"text" : "jit.matrix 4 char 640 480"
				}

			}
, 			{
				"box" : 				{
					"fontface" : 2,
					"fontsize" : 14.0,
					"id" : "obj-64",
					"linecount" : 31,
					"maxclass" : "comment",
					"numinlets" : 1,
					"numoutlets" : 0,
					"patching_rect" : [ 7.0, 39.0, 449.0, 491.0 ],
					"style" : "",
					"text" : "The Matrix object is representative of how image and video data is stored and represented in Max. Any time you see a green patchcord or use a jit object it is returning or expecting matrix data.\n\nIt operates much like an array. It expects 3 arguments:\n\nPlanes (int)\nData Type (string)\nDimensions (int int)\n\nPlanes - With image data this is most often represented as ARGB (Alpha = 1, Red = 2, Green = 3, Blue = 4). Normally you would give it 4 planes to represent the visible color spectrum\n\nData Type - Determines what type of data can be stored in the matrix cells. For this class we will only ever use 2 types. The first \"char\" is means that the matrix expect integers that go from a range of 0-255 which is how image data is represented on the CPU. The other data type is \"float32\" meaning that matrix expects floats between 0.0 - 1.0. This is more in line with how image data is reperesented on the GPU or in 3D space, commonly refered to as normalized values.\n\nDimensions - Rows and Columns of the matrix. Resolution if you are thinking of it in image/video tersm. You can set these to any value but generally you will see numbers that are 4:3 or 16:9 ratio since these are common screen size ratios. Examples are (640x480), (1024x768), (1920x1080). You can use a matrix to upsample or downsample the resolution of a matrix. Keep in mind the higher your dimensions the more taxing processing the data will be on your computer\n\n\n"
				}

			}
, 			{
				"box" : 				{
					"id" : "obj-63",
					"linecount" : 6,
					"maxclass" : "comment",
					"numinlets" : 1,
					"numoutlets" : 0,
					"patching_rect" : [ 1204.0, 819.0, 375.0, 87.0 ],
					"presentation_rect" : [ 926.0, 808.0, 0.0, 0.0 ],
					"style" : "",
					"text" : "Jit.cellblock will translate matrix data into numerical data. This object is a great way to visualize what data is actually store in the matrix. You can view each plane seperately by sending a plane message with the number plane you want as an argument. Sending the plane message with -1 as an argument causes it to show all planes at once."
				}

			}
, 			{
				"box" : 				{
					"id" : "obj-62",
					"linecount" : 6,
					"maxclass" : "comment",
					"numinlets" : 1,
					"numoutlets" : 0,
					"patching_rect" : [ 496.0, 819.0, 171.0, 87.0 ],
					"style" : "",
					"text" : "Jit.pwindow will translate matrix data into visual data, assuming that whatever information it receives has an X and Y dimension and 4 planes ARGB."
				}

			}
, 			{
				"box" : 				{
					"id" : "obj-59",
					"maxclass" : "comment",
					"numinlets" : 1,
					"numoutlets" : 0,
					"patching_rect" : [ 1214.0, 349.0, 75.0, 20.0 ],
					"presentation_rect" : [ 778.0, 338.0, 0.0, 0.0 ],
					"style" : "",
					"text" : "All Planes"
				}

			}
, 			{
				"box" : 				{
					"id" : "obj-58",
					"maxclass" : "comment",
					"numinlets" : 1,
					"numoutlets" : 0,
					"patching_rect" : [ 1576.0, 349.0, 69.0, 20.0 ],
					"presentation_rect" : [ 1161.0, 339.0, 0.0, 0.0 ],
					"style" : "",
					"text" : "Blue Plane"
				}

			}
, 			{
				"box" : 				{
					"id" : "obj-57",
					"maxclass" : "comment",
					"numinlets" : 1,
					"numoutlets" : 0,
					"patching_rect" : [ 1488.0, 349.0, 78.0, 20.0 ],
					"presentation_rect" : [ 1045.0, 339.0, 0.0, 0.0 ],
					"style" : "",
					"text" : "Green Plane"
				}

			}
, 			{
				"box" : 				{
					"id" : "obj-55",
					"maxclass" : "comment",
					"numinlets" : 1,
					"numoutlets" : 0,
					"patching_rect" : [ 1398.0, 349.0, 75.0, 20.0 ],
					"presentation_rect" : [ 916.0, 339.0, 0.0, 0.0 ],
					"style" : "",
					"text" : "Red Plane"
				}

			}
, 			{
				"box" : 				{
					"id" : "obj-54",
					"maxclass" : "comment",
					"numinlets" : 1,
					"numoutlets" : 0,
					"patching_rect" : [ 1305.0, 349.0, 75.0, 20.0 ],
					"style" : "",
					"text" : "Alpha Plane"
				}

			}
, 			{
				"box" : 				{
					"id" : "obj-52",
					"linecount" : 3,
					"maxclass" : "comment",
					"numinlets" : 1,
					"numoutlets" : 0,
					"patching_rect" : [ 799.642822, 239.0, 126.0, 47.0 ],
					"style" : "",
					"text" : "You can send a clear message to erase the contents of the matrix"
				}

			}
, 			{
				"box" : 				{
					"id" : "obj-48",
					"maxclass" : "comment",
					"numinlets" : 1,
					"numoutlets" : 0,
					"patching_rect" : [ 1217.0, 178.0, 150.0, 20.0 ],
					"presentation_rect" : [ 36.0, 138.0, 0.0, 0.0 ],
					"style" : "",
					"text" : "Set pixel 3,1 to be green"
				}

			}
, 			{
				"box" : 				{
					"id" : "obj-49",
					"maxclass" : "message",
					"numinlets" : 2,
					"numoutlets" : 1,
					"outlettype" : [ "" ],
					"patching_rect" : [ 1204.0, 205.0, 137.0, 22.0 ],
					"presentation_rect" : [ 36.0, 165.0, 0.0, 0.0 ],
					"style" : "",
					"text" : "setcell 2 3 val 0 0 0 255"
				}

			}
, 			{
				"box" : 				{
					"id" : "obj-47",
					"maxclass" : "comment",
					"numinlets" : 1,
					"numoutlets" : 0,
					"patching_rect" : [ 1217.0, 239.0, 150.0, 20.0 ],
					"presentation_rect" : [ 37.0, 164.0, 0.0, 0.0 ],
					"style" : "",
					"text" : "Set pixel 2,3 to be blue"
				}

			}
, 			{
				"box" : 				{
					"id" : "obj-46",
					"maxclass" : "comment",
					"numinlets" : 1,
					"numoutlets" : 0,
					"patching_rect" : [ 1217.0, 123.0, 150.0, 20.0 ],
					"style" : "",
					"text" : "Set pixel 1,0 to be red"
				}

			}
, 			{
				"box" : 				{
					"id" : "obj-44",
					"linecount" : 7,
					"maxclass" : "comment",
					"numinlets" : 1,
					"numoutlets" : 0,
					"patching_rect" : [ 522.0, 212.5, 178.0, 100.0 ],
					"style" : "",
					"text" : "3. In order to visualize what is in the matrix it expects a bang to output its contents.if you hooked up a metro to send continuous bangs to the matrix it would constantly return its contents"
				}

			}
, 			{
				"box" : 				{
					"id" : "obj-41",
					"linecount" : 10,
					"maxclass" : "comment",
					"numinlets" : 1,
					"numoutlets" : 0,
					"patching_rect" : [ 1024.0, 123.0, 157.0, 141.0 ],
					"style" : "",
					"text" : "1. Use these parameters to store different RGB values at different pixel (xy) locations. XY have a range of 0-3 because it is a 4x4 matrix. RGB has a range of 0-255 because it is char data. This is similar to how RGB is represented when you used p5"
				}

			}
, 			{
				"box" : 				{
					"id" : "obj-39",
					"linecount" : 5,
					"maxclass" : "comment",
					"numinlets" : 1,
					"numoutlets" : 0,
					"patching_rect" : [ 746.142822, 23.0, 150.0, 74.0 ],
					"style" : "",
					"text" : "2. Once you have set the xy and rgb info you want to store in the matrix, bang the pack object to send it to the matrix"
				}

			}
, 			{
				"box" : 				{
					"id" : "obj-37",
					"maxclass" : "message",
					"numinlets" : 2,
					"numoutlets" : 1,
					"outlettype" : [ "" ],
					"patching_rect" : [ 1204.0, 266.0, 137.0, 22.0 ],
					"presentation_rect" : [ 63.0, 178.0, 0.0, 0.0 ],
					"style" : "",
					"text" : "setcell 2 3 val 0 0 0 255"
				}

			}
, 			{
				"box" : 				{
					"id" : "obj-36",
					"maxclass" : "button",
					"numinlets" : 1,
					"numoutlets" : 1,
					"outlettype" : [ "bang" ],
					"patching_rect" : [ 718.0, 23.0, 24.0, 24.0 ],
					"style" : ""
				}

			}
, 			{
				"box" : 				{
					"id" : "obj-34",
					"maxclass" : "message",
					"numinlets" : 2,
					"numoutlets" : 1,
					"outlettype" : [ "" ],
					"patching_rect" : [ 759.5, 239.0, 37.0, 22.0 ],
					"style" : "",
					"text" : "clear"
				}

			}
, 			{
				"box" : 				{
					"id" : "obj-32",
					"maxclass" : "newobj",
					"numinlets" : 1,
					"numoutlets" : 1,
					"outlettype" : [ "bang" ],
					"patching_rect" : [ 1204.0, 325.0, 60.0, 22.0 ],
					"style" : "",
					"text" : "loadbang"
				}

			}
, 			{
				"box" : 				{
					"id" : "obj-31",
					"maxclass" : "message",
					"numinlets" : 2,
					"numoutlets" : 1,
					"outlettype" : [ "" ],
					"patching_rect" : [ 1576.0, 371.0, 50.0, 22.0 ],
					"presentation_rect" : [ 1022.0, 361.0, 0.0, 0.0 ],
					"style" : "",
					"text" : "plane 3"
				}

			}
, 			{
				"box" : 				{
					"id" : "obj-30",
					"maxclass" : "message",
					"numinlets" : 2,
					"numoutlets" : 1,
					"outlettype" : [ "" ],
					"patching_rect" : [ 1488.0, 371.0, 50.0, 22.0 ],
					"presentation_rect" : [ 956.0, 361.0, 0.0, 0.0 ],
					"style" : "",
					"text" : "plane 2"
				}

			}
, 			{
				"box" : 				{
					"id" : "obj-29",
					"maxclass" : "message",
					"numinlets" : 2,
					"numoutlets" : 1,
					"outlettype" : [ "" ],
					"patching_rect" : [ 1398.0, 371.0, 50.0, 22.0 ],
					"presentation_rect" : [ 894.0, 361.0, 0.0, 0.0 ],
					"style" : "",
					"text" : "plane 1"
				}

			}
, 			{
				"box" : 				{
					"id" : "obj-28",
					"maxclass" : "message",
					"numinlets" : 2,
					"numoutlets" : 1,
					"outlettype" : [ "" ],
					"patching_rect" : [ 1305.0, 371.0, 50.0, 22.0 ],
					"presentation_rect" : [ 823.0, 361.0, 0.0, 0.0 ],
					"style" : "",
					"text" : "plane 0"
				}

			}
, 			{
				"box" : 				{
					"id" : "obj-27",
					"maxclass" : "message",
					"numinlets" : 2,
					"numoutlets" : 1,
					"outlettype" : [ "" ],
					"patching_rect" : [ 1204.0, 371.0, 54.0, 22.0 ],
					"style" : "",
					"text" : "plane -1"
				}

			}
, 			{
				"box" : 				{
					"cols" : 4,
					"fontface" : 0,
					"fontname" : "Arial",
					"fontsize" : 12.0,
					"id" : "obj-25",
					"maxclass" : "jit.cellblock",
					"numinlets" : 2,
					"numoutlets" : 4,
					"outlettype" : [ "list", "", "", "" ],
					"patching_rect" : [ 1204.0, 430.0, 506.666656, 380.0 ],
					"rows" : 4
				}

			}
, 			{
				"box" : 				{
					"id" : "obj-24",
					"maxclass" : "message",
					"numinlets" : 2,
					"numoutlets" : 1,
					"outlettype" : [ "" ],
					"patching_rect" : [ 1204.0, 151.0, 137.0, 22.0 ],
					"style" : "",
					"text" : "setcell 1 0 val 0 255 0 0"
				}

			}
, 			{
				"box" : 				{
					"id" : "obj-21",
					"maxclass" : "message",
					"numinlets" : 2,
					"numoutlets" : 1,
					"outlettype" : [ "" ],
					"patching_rect" : [ 626.0, 356.0, 199.0, 22.0 ],
					"style" : "",
					"text" : "setcell 0 3 val 0 0 0 255"
				}

			}
, 			{
				"box" : 				{
					"id" : "obj-17",
					"maxclass" : "comment",
					"numinlets" : 1,
					"numoutlets" : 0,
					"patching_rect" : [ 970.142822, 123.0, 43.0, 20.0 ],
					"presentation_rect" : [ 498.142822, 191.0, 0.0, 0.0 ],
					"style" : "",
					"text" : "Blue"
				}

			}
, 			{
				"box" : 				{
					"id" : "obj-11",
					"maxclass" : "comment",
					"numinlets" : 1,
					"numoutlets" : 0,
					"patching_rect" : [ 915.142822, 123.0, 43.0, 20.0 ],
					"style" : "",
					"text" : "Green"
				}

			}
, 			{
				"box" : 				{
					"id" : "obj-9",
					"maxclass" : "comment",
					"numinlets" : 1,
					"numoutlets" : 0,
					"patching_rect" : [ 860.142822, 123.0, 43.0, 20.0 ],
					"style" : "",
					"text" : "Red"
				}

			}
, 			{
				"box" : 				{
					"id" : "obj-7",
					"maxclass" : "comment",
					"numinlets" : 1,
					"numoutlets" : 0,
					"patching_rect" : [ 799.642822, 123.0, 43.0, 20.0 ],
					"presentation_rect" : [ 325.642853, 191.0, 0.0, 0.0 ],
					"style" : "",
					"text" : "Y Dim"
				}

			}
, 			{
				"box" : 				{
					"id" : "obj-6",
					"maxclass" : "comment",
					"numinlets" : 1,
					"numoutlets" : 0,
					"patching_rect" : [ 741.142822, 123.0, 47.0, 20.0 ],
					"style" : "",
					"text" : "X Dim"
				}

			}
, 			{
				"box" : 				{
					"id" : "obj-19",
					"maxclass" : "jit.pwindow",
					"numinlets" : 1,
					"numoutlets" : 2,
					"outlettype" : [ "", "" ],
					"patching_rect" : [ 496.0, 430.0, 506.666656, 380.0 ]
				}

			}
, 			{
				"box" : 				{
					"id" : "obj-18",
					"maxclass" : "button",
					"numinlets" : 1,
					"numoutlets" : 1,
					"outlettype" : [ "bang" ],
					"patching_rect" : [ 496.0, 212.5, 24.0, 24.0 ],
					"style" : ""
				}

			}
, 			{
				"box" : 				{
					"id" : "obj-16",
					"maxclass" : "number",
					"numinlets" : 1,
					"numoutlets" : 2,
					"outlettype" : [ "", "bang" ],
					"parameter_enable" : 0,
					"patching_rect" : [ 860.142822, 147.0, 50.0, 22.0 ],
					"style" : ""
				}

			}
, 			{
				"box" : 				{
					"id" : "obj-14",
					"maxclass" : "number",
					"numinlets" : 1,
					"numoutlets" : 2,
					"outlettype" : [ "", "bang" ],
					"parameter_enable" : 0,
					"patching_rect" : [ 915.142822, 147.0, 50.0, 22.0 ],
					"style" : ""
				}

			}
, 			{
				"box" : 				{
					"id" : "obj-15",
					"maxclass" : "number",
					"numinlets" : 1,
					"numoutlets" : 2,
					"outlettype" : [ "", "bang" ],
					"parameter_enable" : 0,
					"patching_rect" : [ 970.142822, 147.0, 50.0, 22.0 ],
					"style" : ""
				}

			}
, 			{
				"box" : 				{
					"id" : "obj-13",
					"maxclass" : "number",
					"numinlets" : 1,
					"numoutlets" : 2,
					"outlettype" : [ "", "bang" ],
					"parameter_enable" : 0,
					"patching_rect" : [ 741.142822, 147.0, 50.0, 22.0 ],
					"style" : ""
				}

			}
, 			{
				"box" : 				{
					"id" : "obj-12",
					"maxclass" : "number",
					"numinlets" : 1,
					"numoutlets" : 2,
					"outlettype" : [ "", "bang" ],
					"parameter_enable" : 0,
					"patching_rect" : [ 796.142822, 147.0, 50.0, 22.0 ],
					"style" : ""
				}

			}
, 			{
				"box" : 				{
					"id" : "obj-10",
					"maxclass" : "newobj",
					"numinlets" : 8,
					"numoutlets" : 1,
					"outlettype" : [ "" ],
					"patching_rect" : [ 718.0, 197.0, 152.0, 22.0 ],
					"style" : "",
					"text" : "pack setcell 0 0 val 0 0 0 0"
				}

			}
, 			{
				"box" : 				{
					"id" : "obj-4",
					"maxclass" : "newobj",
					"numinlets" : 1,
					"numoutlets" : 2,
					"outlettype" : [ "jit_matrix", "" ],
					"patching_rect" : [ 496.0, 356.0, 112.0, 22.0 ],
					"style" : "",
					"text" : "jit.matrix 4 char 4 4"
				}

			}
, 			{
				"box" : 				{
					"fontface" : 1,
					"fontsize" : 18.0,
					"id" : "obj-56",
					"maxclass" : "comment",
					"numinlets" : 1,
					"numoutlets" : 0,
					"patching_rect" : [ 7.0, 7.0, 162.0, 27.0 ],
					"style" : "",
					"text" : "The Matrix Object"
				}

			}
, 			{
				"box" : 				{
					"id" : "obj-51",
					"linecount" : 2,
					"maxclass" : "comment",
					"numinlets" : 1,
					"numoutlets" : 0,
					"patching_rect" : [ 7.5, 1039.0, 216.0, 33.0 ],
					"style" : "",
					"text" : "Patch by Matt Romein\nDeveloped for LIPP Spring '18 @ ITP"
				}

			}
 ],
		"lines" : [ 			{
				"patchline" : 				{
					"destination" : [ "obj-21", 1 ],
					"midpoints" : [ 727.5, 326.0, 815.5, 326.0 ],
					"order" : 0,
					"source" : [ "obj-10", 0 ]
				}

			}
, 			{
				"patchline" : 				{
					"destination" : [ "obj-4", 0 ],
					"midpoints" : [ 727.5, 326.0, 505.5, 326.0 ],
					"order" : 1,
					"source" : [ "obj-10", 0 ]
				}

			}
, 			{
				"patchline" : 				{
					"destination" : [ "obj-10", 2 ],
					"midpoints" : [ 805.642822, 182.5, 765.5, 182.5 ],
					"source" : [ "obj-12", 0 ]
				}

			}
, 			{
				"patchline" : 				{
					"destination" : [ "obj-10", 1 ],
					"midpoints" : [ 750.642822, 182.5, 746.5, 182.5 ],
					"source" : [ "obj-13", 0 ]
				}

			}
, 			{
				"patchline" : 				{
					"destination" : [ "obj-10", 6 ],
					"midpoints" : [ 924.642822, 182.5, 841.5, 182.5 ],
					"source" : [ "obj-14", 0 ]
				}

			}
, 			{
				"patchline" : 				{
					"destination" : [ "obj-10", 7 ],
					"midpoints" : [ 979.642822, 182.5, 860.5, 182.5 ],
					"source" : [ "obj-15", 0 ]
				}

			}
, 			{
				"patchline" : 				{
					"destination" : [ "obj-10", 5 ],
					"midpoints" : [ 869.642822, 182.5, 822.5, 182.5 ],
					"source" : [ "obj-16", 0 ]
				}

			}
, 			{
				"patchline" : 				{
					"destination" : [ "obj-4", 0 ],
					"source" : [ "obj-18", 0 ]
				}

			}
, 			{
				"patchline" : 				{
					"destination" : [ "obj-4", 0 ],
					"midpoints" : [ 1213.5, 341.0, 505.5, 341.0 ],
					"source" : [ "obj-24", 0 ]
				}

			}
, 			{
				"patchline" : 				{
					"destination" : [ "obj-25", 0 ],
					"source" : [ "obj-27", 0 ]
				}

			}
, 			{
				"patchline" : 				{
					"destination" : [ "obj-25", 0 ],
					"midpoints" : [ 1314.5, 411.0, 1213.5, 411.0 ],
					"source" : [ "obj-28", 0 ]
				}

			}
, 			{
				"patchline" : 				{
					"destination" : [ "obj-25", 0 ],
					"midpoints" : [ 1407.5, 411.0, 1213.5, 411.0 ],
					"source" : [ "obj-29", 0 ]
				}

			}
, 			{
				"patchline" : 				{
					"destination" : [ "obj-25", 0 ],
					"midpoints" : [ 1497.5, 411.0, 1213.5, 411.0 ],
					"source" : [ "obj-30", 0 ]
				}

			}
, 			{
				"patchline" : 				{
					"destination" : [ "obj-25", 0 ],
					"midpoints" : [ 1585.5, 411.0, 1213.5, 411.0 ],
					"source" : [ "obj-31", 0 ]
				}

			}
, 			{
				"patchline" : 				{
					"destination" : [ "obj-27", 0 ],
					"source" : [ "obj-32", 0 ]
				}

			}
, 			{
				"patchline" : 				{
					"destination" : [ "obj-4", 0 ],
					"midpoints" : [ 769.0, 326.0, 505.5, 326.0 ],
					"source" : [ "obj-34", 0 ]
				}

			}
, 			{
				"patchline" : 				{
					"destination" : [ "obj-10", 0 ],
					"source" : [ "obj-36", 0 ]
				}

			}
, 			{
				"patchline" : 				{
					"destination" : [ "obj-4", 0 ],
					"midpoints" : [ 1213.5, 340.5, 505.5, 340.5 ],
					"source" : [ "obj-37", 0 ]
				}

			}
, 			{
				"patchline" : 				{
					"destination" : [ "obj-19", 0 ],
					"order" : 1,
					"source" : [ "obj-4", 0 ]
				}

			}
, 			{
				"patchline" : 				{
					"destination" : [ "obj-25", 0 ],
					"midpoints" : [ 505.5, 403.5, 1213.5, 403.5 ],
					"order" : 0,
					"source" : [ "obj-4", 0 ]
				}

			}
, 			{
				"patchline" : 				{
					"destination" : [ "obj-4", 0 ],
					"midpoints" : [ 1213.5, 340.0, 505.5, 340.0 ],
					"source" : [ "obj-49", 0 ]
				}

			}
 ],
		"dependency_cache" : [  ],
		"autosave" : 0
	}

}
