{
	"patcher" : 	{
		"fileversion" : 1,
		"appversion" : 		{
			"major" : 7,
			"minor" : 3,
			"revision" : 4,
			"architecture" : "x86",
			"modernui" : 1
		}
,
		"rect" : [ 34.0, 79.0, 1079.0, 699.0 ],
		"bglocked" : 0,
		"openinpresentation" : 0,
		"default_fontsize" : 12.0,
		"default_fontface" : 0,
		"default_fontname" : "Arial",
		"gridonopen" : 1,
		"gridsize" : [ 15.0, 15.0 ],
		"gridsnaponopen" : 1,
		"objectsnaponopen" : 1,
		"statusbarvisible" : 2,
		"toolbarvisible" : 1,
		"lefttoolbarpinned" : 0,
		"toptoolbarpinned" : 0,
		"righttoolbarpinned" : 0,
		"bottomtoolbarpinned" : 0,
		"toolbars_unpinned_last_save" : 0,
		"tallnewobj" : 0,
		"boxanimatetime" : 200,
		"enablehscroll" : 1,
		"enablevscroll" : 1,
		"devicewidth" : 0.0,
		"description" : "",
		"digest" : "",
		"tags" : "",
		"style" : "",
		"subpatcher_template" : "",
		"boxes" : [ 			{
				"box" : 				{
					"id" : "obj-51",
					"linecount" : 2,
					"maxclass" : "comment",
					"numinlets" : 1,
					"numoutlets" : 0,
					"patching_rect" : [ 6.0, 658.0, 216.0, 33.0 ],
					"style" : "",
					"text" : "Patch by Matt Romein\nDeveloped for LIPP Spring '18 @ ITP"
				}

			}
, 			{
				"box" : 				{
					"fontface" : 1,
					"fontsize" : 20.0,
					"id" : "obj-19",
					"maxclass" : "comment",
					"numinlets" : 1,
					"numoutlets" : 0,
					"patching_rect" : [ 20.0, 8.0, 150.0, 29.0 ],
					"style" : "",
					"text" : "OSC Send"
				}

			}
, 			{
				"box" : 				{
					"id" : "obj-17",
					"linecount" : 5,
					"maxclass" : "comment",
					"numinlets" : 1,
					"numoutlets" : 0,
					"patching_rect" : [ 216.0, 97.0, 334.0, 74.0 ],
					"style" : "",
					"text" : "Prepend adds a message before a value, prepending it. \n\nHere we add messages that allow the data to be parsed by the receiving patch. the / is a convention in OSC programming but not necessary."
				}

			}
, 			{
				"box" : 				{
					"id" : "obj-15",
					"linecount" : 8,
					"maxclass" : "comment",
					"numinlets" : 1,
					"numoutlets" : 0,
					"patching_rect" : [ 216.0, 300.0, 174.0, 114.0 ],
					"style" : "",
					"text" : "Try changing 127.0.0.1 to the IP address of the computer you are sending to. If you are both on the same network and that computer has Max open with a udpreceive object with the port set to 8000 then it will receive the data."
				}

			}
, 			{
				"box" : 				{
					"id" : "obj-14",
					"linecount" : 8,
					"maxclass" : "comment",
					"numinlets" : 1,
					"numoutlets" : 0,
					"patching_rect" : [ 24.0, 300.0, 169.0, 114.0 ],
					"style" : "",
					"text" : "udpsend requires both the IP address and port number you are sending data to. \n\nIn this case localhost and 127.0.0.1 will only work if you have both patches open on the same computer "
				}

			}
, 			{
				"box" : 				{
					"id" : "obj-9",
					"linecount" : 19,
					"maxclass" : "comment",
					"numinlets" : 1,
					"numoutlets" : 0,
					"patching_rect" : [ 592.0, 9.0, 478.0, 261.0 ],
					"style" : "",
					"text" : "OSC is a protocol for sending data between computers across a network. It is quick and easy to implement and commonly found in many creative coding languages.\n\nYou can use it to send ints, floats, strings, and lists between computers and even software/coding languages. For example I commonly use OSC to have data from Max go to Unreal Engine and vice versa. I commonly use OSC to create an interface in Max that controls other software because Max is so quick for building interfaces and implementing controllers.  \n\nIn order to use OSC the computers must be on the same wifi network and you need to know IP address of the computer you are sending data to. If you are sending data to a software or language on the same computer you can set it as \"localhost\" or 127.0.0.1.\n\nTo find your computer's wifi network got to System Preferences -> Network\n\nThe receiving computer will be listening on a port at its own IP address. The sending computer must send data to that same port at the target IP address.\n\nAgain, both computers must be on the same wifi network in order for this to work."
				}

			}
, 			{
				"box" : 				{
					"id" : "obj-2",
					"maxclass" : "comment",
					"numinlets" : 1,
					"numoutlets" : 0,
					"patching_rect" : [ 20.0, 48.0, 240.0, 20.0 ],
					"style" : "",
					"text" : "Open this patch along with 4_OSC_receive"
				}

			}
, 			{
				"box" : 				{
					"format" : 6,
					"id" : "obj-12",
					"maxclass" : "flonum",
					"numinlets" : 1,
					"numoutlets" : 2,
					"outlettype" : [ "", "bang" ],
					"parameter_enable" : 0,
					"patching_rect" : [ 473.0, 188.0, 50.0, 22.0 ],
					"style" : ""
				}

			}
, 			{
				"box" : 				{
					"format" : 6,
					"id" : "obj-11",
					"maxclass" : "flonum",
					"numinlets" : 1,
					"numoutlets" : 2,
					"outlettype" : [ "", "bang" ],
					"parameter_enable" : 0,
					"patching_rect" : [ 346.0, 188.0, 50.0, 22.0 ],
					"style" : ""
				}

			}
, 			{
				"box" : 				{
					"format" : 6,
					"id" : "obj-10",
					"maxclass" : "flonum",
					"numinlets" : 1,
					"numoutlets" : 2,
					"outlettype" : [ "", "bang" ],
					"parameter_enable" : 0,
					"patching_rect" : [ 216.0, 188.0, 50.0, 22.0 ],
					"style" : ""
				}

			}
, 			{
				"box" : 				{
					"id" : "obj-8",
					"maxclass" : "newobj",
					"numinlets" : 1,
					"numoutlets" : 1,
					"outlettype" : [ "" ],
					"patching_rect" : [ 473.0, 219.0, 104.0, 22.0 ],
					"style" : "",
					"text" : "prepend /contrast"
				}

			}
, 			{
				"box" : 				{
					"id" : "obj-7",
					"maxclass" : "newobj",
					"numinlets" : 1,
					"numoutlets" : 1,
					"outlettype" : [ "" ],
					"patching_rect" : [ 346.0, 219.0, 114.0, 22.0 ],
					"style" : "",
					"text" : "prepend /saturation"
				}

			}
, 			{
				"box" : 				{
					"id" : "obj-6",
					"maxclass" : "newobj",
					"numinlets" : 1,
					"numoutlets" : 1,
					"outlettype" : [ "" ],
					"patching_rect" : [ 216.0, 219.0, 117.0, 22.0 ],
					"style" : "",
					"text" : "prepend /brightness"
				}

			}
, 			{
				"box" : 				{
					"id" : "obj-5",
					"maxclass" : "newobj",
					"numinlets" : 1,
					"numoutlets" : 0,
					"patching_rect" : [ 216.0, 269.0, 140.0, 22.0 ],
					"style" : "",
					"text" : "udpsend 127.0.0.1 8001"
				}

			}
, 			{
				"box" : 				{
					"id" : "obj-4",
					"maxclass" : "newobj",
					"numinlets" : 1,
					"numoutlets" : 0,
					"patching_rect" : [ 20.0, 269.0, 140.0, 22.0 ],
					"style" : "",
					"text" : "udpsend 127.0.0.1 8000"
				}

			}
, 			{
				"box" : 				{
					"id" : "obj-3",
					"maxclass" : "number",
					"numinlets" : 1,
					"numoutlets" : 2,
					"outlettype" : [ "", "bang" ],
					"parameter_enable" : 0,
					"patching_rect" : [ 20.0, 179.0, 50.0, 22.0 ],
					"style" : ""
				}

			}
, 			{
				"box" : 				{
					"id" : "obj-1",
					"maxclass" : "newobj",
					"numinlets" : 1,
					"numoutlets" : 0,
					"patching_rect" : [ 20.0, 219.0, 137.0, 22.0 ],
					"style" : "",
					"text" : "udpsend localhost 8000"
				}

			}
 ],
		"lines" : [ 			{
				"patchline" : 				{
					"destination" : [ "obj-6", 0 ],
					"source" : [ "obj-10", 0 ]
				}

			}
, 			{
				"patchline" : 				{
					"destination" : [ "obj-7", 0 ],
					"source" : [ "obj-11", 0 ]
				}

			}
, 			{
				"patchline" : 				{
					"destination" : [ "obj-8", 0 ],
					"source" : [ "obj-12", 0 ]
				}

			}
, 			{
				"patchline" : 				{
					"destination" : [ "obj-1", 0 ],
					"source" : [ "obj-3", 0 ]
				}

			}
, 			{
				"patchline" : 				{
					"destination" : [ "obj-5", 0 ],
					"source" : [ "obj-6", 0 ]
				}

			}
, 			{
				"patchline" : 				{
					"destination" : [ "obj-5", 0 ],
					"midpoints" : [ 355.5, 254.5, 225.5, 254.5 ],
					"source" : [ "obj-7", 0 ]
				}

			}
, 			{
				"patchline" : 				{
					"destination" : [ "obj-5", 0 ],
					"midpoints" : [ 482.5, 254.5, 225.5, 254.5 ],
					"source" : [ "obj-8", 0 ]
				}

			}
 ],
		"dependency_cache" : [  ],
		"autosave" : 0
	}

}
